
[url=http://www.imdb.com/title/tt1598778/][img]http://img545.imageshack.us/img545/1896/imdb1t.png[/img][/url]
[color=red]StoryLine[/color]
[color=green]oon after her return from a business trip to Hong Kong, Beth Emhoff dies from what is a flu or some other type of infection. Her young son dies later the same day. Her husband Mitch however seems immune. Thus begins the spread of a deadly infection. For doctors and administrators at the U.S. Centers for Disease Control, several days pass before anyone realizes the extent or gravity of this new infection. They must first identify the type of virus in question and then find a means of combating it, a process that will likely take several months. As the contagion spreads to millions of people worldwide, societal order begins to break down as people panic.[/color]
[img]http://www.comingsoon.net/nextraimages/contagion-poster-combined.jpg[/img]
[img]http://img402.imageshack.us/img402/71/dirtyhd.png[/img]
Format                           : Matroska
File size                        : 2.50 GiB
Duration                         : 1h 46mn
Overall bit rate                 : 3 363 Kbps
Movie name                       : Contagion 2011 BRRip 1080p^^TAKRIAN^^^DIRTYHD^^
Encoded date                     : UTC 2012-01-29 17:32:04
Writing application              : mkvmerge v4.4.0 ('Die Wiederkehr') built on Oct 31 2010 21:52:48
Writing library                  : libebml v1.0.0 + libmatroska v1.0.0

Video
ID                               : 1
Format                           : AVC
Format/Info                      : Advanced Video Codec
Format profile                   : High@L4.1
Format settings, CABAC           : Yes
Format settings, ReFrames        : 3 frames
Format settings, GOP             : M=1, N=16
Muxing mode                      : Header stripping
Codec ID                         : V_MPEG4/ISO/AVC
Duration                         : 1h 46mn
Bit rate mode                    : Variable
Bit rate                         : 2 690 Kbps
Maximum bit rate                 : 40.0 Mbps
Width                            : 1 920 pixels
Height                           : 1 072 pixels
Display aspect ratio             : 16:9
Frame rate                       : 23.976 fps
Color space                      : YUV
Chroma subsampling               : 4:2:0
Bit depth                        : 8 bits
Scan type                        : Progressive
Bits/(Pixel*Frame)               : 0.055
Stream size                      : 1.95 GiB (78%)
Title                            : ^^TAKRIAN^^^ENGLISH^^
Writing library                  : x264 core 120 r2120 0c7dab9
Encoding settings                : cabac=1 / ref=4 / deblock=1:0:0 / analyse=0x3:0x113 / me=umh / subme=9 / psy=1 / psy_rd=1.00:0.00 / mixed_ref=1 / me_range=16 / chroma_me=1 / trellis=2 / 8x8dct=1 / cqm=0 / deadzone=21,11 / fast_pskip=1 / chroma_qp_offset=-2 / threads=9 / sliced_threads=0 / slices=4 / nr=0 / decimate=1 / interlaced=0 / bluray_compat=0 / constrained_intra=0 / bframes=3 / b_pyramid=1 / b_adapt=2 / b_bias=0 / direct=1 / weightb=1 / open_gop=0 / weightp=0 / keyint=24 / keyint_min=2 / scenecut=40 / intra_refresh=0 / rc_lookahead=24 / rc=2pass / mbtree=1 / bitrate=2690 / ratetol=1.0 / qcomp=0.60 / qpmin=10 / qpmax=51 / qpstep=4 / cplxblur=20.0 / qblur=0.5 / vbv_maxrate=40000 / vbv_bufsize=30000 / nal_hrd=vbr / ip_ratio=1.40 / aq=1:1.00
Language                         : English

Audio #1
ID                               : 2
Format                           : AC-3
Format/Info                      : Audio Coding 3
Mode extension                   : CM (complete main)
Muxing mode                      : Header stripping
Codec ID                         : A_AC3
Duration                         : 1h 46mn
Bit rate mode                    : Constant
Bit rate                         : 448 Kbps
Channel(s)                       : 6 channels
Channel positions                : Front: L C R, Side: L R, LFE
Sampling rate                    : 48.0 KHz
Bit depth                        : 16 bits
Compression mode                 : Lossy
Stream size                      : 340 MiB (13%)
Title                            : ^^TAKRIAN^^^ENGLISH^^
Language                         : English

Audio #2
ID                               : 3
Format                           : AC-3
Format/Info                      : Audio Coding 3
Mode extension                   : CM (complete main)
Muxing mode                      : Header stripping
Codec ID                         : A_AC3
Duration                         : 1h 46mn
Bit rate mode                    : Constant
Bit rate                         : 224 Kbps
Channel(s)                       : 2 channels
Channel positions                : Front: L R
Sampling rate                    : 48.0 KHz
Bit depth                        : 16 bits
Compression mode                 : Lossy
Delay relative to video          : 17s 900ms
Stream size                      : 170 MiB (7%)
Title                            : ^^TAKRIAN^^^HINDI^^
Language                         : Hindi


[img]http://img256.imageshack.us/img256/8123/vlcsnap2012012820h17m23.png[/img]
[img]http://img213.imageshack.us/img213/1755/vlcsnap2012012820h17m27.png[/img]
[img]http://img404.imageshack.us/img404/1220/vlcsnap2012012820h17m46.png[/img]
[img]http://img513.imageshack.us/img513/2053/vlcsnap2012012820h18m08.png[/img]
[img]http://img259.imageshack.us/img259/7263/vlcsnap2012012820h18m16.png[/img]
[img]http://img141.imageshack.us/img141/3703/vlcsnap2012012820h18m47.png[/img]
[img]http://img163.imageshack.us/img163/4138/vlcsnap2012012820h18m59.png[/img]
[img]http://img24.imageshack.us/img24/5407/vlcsnap2012012820h19m02.png
[/img]